Wrong.Turn.DVDRip.XviD-DiAMOND


ViDEO: 1024kbps avg xvid
AUDiO: 126kbps vbr mp3
RESOLUTiON: 576x304 
http://www.imdb.com/title/tt0295700/



Wrong.Turn.2.STV.DVDRip.XviD-DMT


Frame Rate ..... 23.976 fps
Audio Format ...... VBR MP3
Audio Bitrate ..... 128 kbs
Video Format ......... XviD
Video Bitrate ......... 868
Video Resolution .. 640x352
Aspect ............. 1.81:1 
http://www.imdb.com/title/tt0804555


Wrong.Turn.3.Left.For.Dead.2009.UNRATED.REAL.PROPER.DVDRip.XviD-DVSKY


Encode Info
Container: AVI
Run Time: 1h 32mn
Overall Bitrate: 1,067 Kbps
Video
Format: MPEG-4(H.263)
Codec ID: XVID
Bitrate: 925,Kbps
Resolution: 624x352 pixels
Framerate: 23.976 fps
Display AR: 16/9
Audio
Format: MPEG Audio
Profile: Layer 3
Codec ID: MP3
Bitrate/Mode: 129/Variable
Channels: 2
Sample Rate: 48.0 KHz
Resolution: 16 bit 
http://www.imdb.com/title/tt1261978/


Wrong.Turn.4.Bloody.Beginnings.2011.DVDRip.XviD-EXViD


Format: AVI
Format/Info: Audio Video Interleave
File size: 700 MiB
Duration: 1h 29mn
Overall bit rate: 1 093 Kbps
Writing application: VirtualDubMod 1.5.10.2 (build 2540/release)
Writing library: VirtualDubMod build 2540/release

Video
ID: 0
Format: MPEG-4 Visual
Format profile: Advanced Simple@L5
Format settings, BVOP: Yes
Format settings, QPel: No
Format settings, GMC: No warppoints
Format settings, Matrix: Default (H.263)
Muxing mode: Packed bitstream
Codec ID: XVID
Codec ID/Hint: XviD
Duration: 1h 29mn
Bit rate: 958 Kbps
Width: 624 pixels
Height: 352 pixels
Display aspect ratio: 16:9
Frame rate: 25.000 fps
Color space: YUV
Chroma subsampling: 4:2:0
Bit depth: 8 bits
Scan type: Progressive
Bits/(Pixel*Frame): 0.174
Stream size: 613 MiB (88%)
Writing library: XviD 62

Audio
ID: 1
Format: MPEG Audio
Format version: Version 1
Format profile: Layer 3
Mode: Joint stereo
Mode extension: MS Stereo
Codec ID: 55
Codec ID/Hint: MP3
Duration: 1h 29mn
Bit rate mode: Variable
Bit rate: 128 Kbps
Channel(s): 2 channels
Sampling rate: 48.0 KHz
Stream size: 78.7 MiB (11%)
Alignment: Aligned on interleaves
Interleave, duration: 24 ms (0.60 video frame)
Interleave, preload duration: 149 ms
Writing library: LAME3.98r
Encoding settings: -m j -V 4 -q 2 -lowpass 17 --abr 128 
http://www.imdb.com/title/tt1865567/


Wrong.Turn.5.DVDRip.XviD-DiSPOSABLE


Video Res: 640x352
Video Bitrate: 939 kbps
Audio: English mp3 128kbps vbr
Runtime: 90mins 
http://www.imdb.com/title/tt2375779/